<svg xmlns="http://www.w3.org/2000/svg" viewBox="0 0 64 64" aria-hidden="true">
  <style>svg{color:#059669}</style>
  <!-- Dense sidebar: more levels -->
  <g fill="none" stroke="currentColor" stroke-width="1.2" stroke-linecap="round" stroke-linejoin="round">
    <path d="M12 12 v10 M12 22 h6 v-4 M18 18 v8 M12 22 v8 M12 30 h6 v-4 M18 26 v6 M12 30 v10 M12 40 h6 v-4 M18 36 v6 M12 40 v8 M12 48 h8 v-4"/>
  </g>
  <circle cx="12" cy="12" r="2.5" fill="currentColor"/>
  <circle cx="12" cy="22" r="2" fill="currentColor"/>
  <circle cx="18" cy="18" r="1.5" fill="currentColor"/>
  <circle cx="18" cy="26" r="1.5" fill="currentColor"/>
  <circle cx="12" cy="30" r="2" fill="currentColor"/>
  <circle cx="18" cy="36" r="1.5" fill="currentColor"/>
  <circle cx="12" cy="40" r="2" fill="currentColor"/>
  <circle cx="12" cy="48" r="2" fill="currentColor"/>
  <circle cx="20" cy="44" r="1.5" fill="currentColor"/>
</svg>
