<svg xmlns="http://www.w3.org/2000/svg" viewBox="0 0 64 64" aria-hidden="true">
  <defs>
    <radialGradient id="sunGradGraph" cx="50%" cy="50%" r="50%">
      <stop offset="0%" stop-color="#fef3c7"/>
      <stop offset="50%" stop-color="#fbbf24"/>
      <stop offset="100%" stop-color="#f59e0b"/>
    </radialGradient>
  </defs>
  <style>svg{color:#059669}</style>
  <!-- Sun: full gradient circle -->
  <circle cx="32" cy="32" r="32" fill="url(#sunGradGraph)"/>
  <!-- Graph: connected nodes (knowledge graph) -->
  <g fill="none" stroke="currentColor" stroke-width="2.5" stroke-linecap="round" stroke-linejoin="round">
    <path d="M32 32 L32 18 M32 32 L46 26 M32 32 L46 38 M32 32 L32 46 M32 32 L18 38 M32 32 L18 26"/>
    <path d="M32 18 L46 26 M32 18 L18 26 M46 26 L46 38 M46 38 L32 46 M32 46 L18 38 M18 38 L18 26"/>
  </g>
  <circle cx="32" cy="32" r="5" fill="currentColor"/>
  <circle cx="32" cy="18" r="4" fill="currentColor"/>
  <circle cx="46" cy="26" r="4" fill="currentColor"/>
  <circle cx="46" cy="38" r="4" fill="currentColor"/>
  <circle cx="32" cy="46" r="4" fill="currentColor"/>
  <circle cx="18" cy="38" r="4" fill="currentColor"/>
  <circle cx="18" cy="26" r="4" fill="currentColor"/>
</svg>
