<svg xmlns="http://www.w3.org/2000/svg" viewBox="0 0 64 64" aria-hidden="true">
  <style>svg{color:#059669}</style>
  <!-- Dense tree: 4 levels, more nodes -->
  <g fill="none" stroke="currentColor" stroke-width="1.2" stroke-linecap="round" stroke-linejoin="round">
    <path d="M32 56 L32 44 L24 36 L18 28 L14 22"/>
    <path d="M24 36 L18 28 L22 22"/>
    <path d="M24 36 L30 28 L26 22"/>
    <path d="M32 44 L40 36 L34 28 L30 22"/>
    <path d="M40 36 L34 28 L38 22"/>
    <path d="M40 36 L46 28 L42 22"/>
  </g>
  <circle cx="32" cy="56" r="2.5" fill="currentColor"/>
  <circle cx="32" cy="44" r="3" fill="currentColor"/>
  <circle cx="24" cy="36" r="2.5" fill="currentColor"/>
  <circle cx="40" cy="36" r="2.5" fill="currentColor"/>
  <circle cx="18" cy="28" r="2" fill="currentColor"/>
  <circle cx="30" cy="28" r="2" fill="currentColor"/>
  <circle cx="34" cy="28" r="2" fill="currentColor"/>
  <circle cx="46" cy="28" r="2" fill="currentColor"/>
  <circle cx="14" cy="22" r="1.5" fill="currentColor"/>
  <circle cx="22" cy="22" r="1.5" fill="currentColor"/>
  <circle cx="26" cy="22" r="1.5" fill="currentColor"/>
  <circle cx="30" cy="22" r="1.5" fill="currentColor"/>
  <circle cx="38" cy="22" r="1.5" fill="currentColor"/>
  <circle cx="42" cy="22" r="1.5" fill="currentColor"/>
</svg>
